<?xml version="1.0" standalone="no"?>
<!DOCTYPE svg PUBLIC "-//W3C//DTD SVG 20010904//EN"
        "http://www.w3.org/TR/2001/REC-SVG-20010904/DTD/svg10.dtd">
<svg version="1.0" xmlns="http://www.w3.org/2000/svg"
     width="1155.000000pt" height="1280.000000pt" viewBox="0 0 1155.000000 1280.000000"
     preserveAspectRatio="xMidYMid meet">
    <metadata>
        Created by potrace 1.15, written by Peter Selinger 2001-2017
    </metadata>
    <g transform="translate(0.000000,1280.000000) scale(0.100000,-0.100000)"
       fill="#000000" stroke="none">
        <path d="M3820 12797 c0 -3 78 -200 174 -439 96 -238 173 -434 171 -436 -2 -2
-48 8 -102 21 -309 79 -669 133 -828 123 -104 -6 -145 -13 -145 -26 0 -4 65
-121 143 -261 79 -140 143 -255 141 -257 -1 -2 -28 10 -60 26 -140 70 -274
102 -459 109 -173 6 -271 -4 -436 -47 -322 -83 -651 -248 -1024 -513 -168
-120 -377 -289 -368 -298 5 -3 111 -84 236 -179 l228 -172 -85 -43 c-307 -156
-570 -466 -824 -968 -196 -388 -382 -899 -542 -1497 -17 -63 -33 -123 -36
-132 -3 -10 44 16 118 65 297 198 627 319 970 356 54 6 166 11 250 11 l153 0
189 -250 189 -250 -25 -28 c-160 -173 -223 -449 -189 -833 52 -585 163 -915
380 -1126 169 -165 395 -298 666 -391 136 -46 233 -71 420 -106 l170 -33 7
-74 c63 -638 457 -1151 1154 -1500 l141 -70 -19 -92 c-13 -60 -21 -154 -25
-267 -5 -154 -3 -190 17 -290 92 -483 436 -871 1044 -1181 l145 -74 11 -55
c92 -458 238 -774 451 -973 85 -80 151 -123 266 -172 165 -71 358 -113 568
-122 205 -9 315 21 414 112 93 87 143 199 164 371 l13 97 58 -78 c248 -329
616 -652 889 -780 130 -60 178 -70 342 -69 108 1 157 6 217 22 213 58 303 155
349 377 23 110 25 322 4 475 -7 58 -11 108 -7 111 4 3 23 12 42 19 64 24 174
88 235 137 216 175 307 448 292 868 -12 325 -79 509 -252 693 -130 138 -315
264 -527 358 -113 50 -342 130 -456 160 l-74 18 9 46 c54 295 -125 600 -547
935 -41 32 -76 60 -78 61 -2 1 20 37 48 80 108 165 168 326 154 416 -8 52 -19
75 -51 109 l-24 26 101 7 c372 24 636 180 764 450 43 91 80 207 108 343 30
147 33 491 5 623 -72 336 -203 667 -342 865 -23 33 -78 94 -122 136 -128 122
-270 180 -445 182 -49 1 -88 4 -88 7 0 3 16 30 35 60 85 132 132 326 120 490
-13 181 -53 354 -108 470 -39 84 -134 181 -197 202 -25 8 -44 18 -43 22 0 4
105 160 233 346 222 325 237 344 360 463 314 304 624 470 898 479 45 2 82 0
82 -4 0 -5 -6 -8 -14 -8 -26 0 -142 -98 -186 -159 -67 -91 -105 -171 -154
-321 -101 -308 -136 -475 -136 -652 0 -184 29 -271 142 -423 152 -204 375
-370 588 -437 110 -34 291 -32 450 5 411 97 840 302 1051 504 81 78 125 147
156 248 24 81 24 313 0 438 -97 490 -402 1049 -759 1392 -160 154 -323 255
-483 300 -101 28 -335 31 -480 7 -349 -60 -699 -215 -1130 -501 -88 -58 -162
-107 -166 -109 -3 -1 -11 44 -18 100 -46 378 -181 761 -364 1038 -180 273
-469 554 -672 654 -170 84 -330 106 -484 67 -171 -43 -290 -121 -370 -244
-135 -208 -159 -548 -66 -960 43 -192 23 -168 162 -188 336 -49 568 -168 798
-411 114 -120 170 -195 214 -288 33 -69 35 -82 36 -170 0 -89 -2 -99 -33 -155
-99 -182 -352 -392 -727 -605 -165 -94 -594 -307 -600 -298 -13 24 -135 300
-135 307 0 6 21 42 46 82 251 387 295 852 129 1368 -154 477 -412 926 -715
1245 -129 136 -355 311 -547 425 -343 203 -765 364 -1208 461 -55 12 -108 24
-117 26 -10 3 -18 3 -18 1z"/>
    </g>
</svg>
