<?xml version="1.0" standalone="no"?>
<!DOCTYPE svg PUBLIC "-//W3C//DTD SVG 20010904//EN"
 "http://www.w3.org/TR/2001/REC-SVG-20010904/DTD/svg10.dtd">
<svg version="1.0" xmlns="http://www.w3.org/2000/svg"
 width="1280.000000pt" height="640.000000pt" viewBox="0 0 1280.000000 640.000000"
 preserveAspectRatio="xMidYMid meet">
<metadata>
Created by potrace 1.15, written by Peter Selinger 2001-2017
</metadata>
<g transform="translate(0.000000,640.000000) scale(0.100000,-0.100000)"
fill="#000000" stroke="none">
<path d="M2255 5455 c-349 -54 -575 -194 -687 -423 -42 -86 -43 -89 -43 -192
0 -93 3 -110 25 -150 25 -43 80 -90 107 -90 10 0 11 5 3 19 -30 58 19 117 125
151 273 89 582 -95 745 -443 193 -412 184 -908 -26 -1401 -245 -574 -791
-1128 -1529 -1554 -235 -135 -620 -313 -873 -402 -51 -18 -91 -34 -90 -35 2
-1 826 1 1833 4 1007 4 1832 4 1835 1 3 -3 790 -3 1750 0 960 3 1747 2 1750
-1 3 -3 896 -2 1985 2 1089 4 2341 8 2782 8 754 1 802 2 807 19 3 9 13 60 23
112 21 119 24 457 4 610 -152 1198 -981 2662 -1897 3351 -282 212 -571 347
-854 399 -147 28 -415 37 -560 21 -364 -43 -615 -190 -732 -428 -42 -87 -43
-90 -43 -193 0 -93 3 -110 25 -150 25 -43 80 -90 107 -90 10 0 11 5 3 19 -30
57 18 115 125 151 288 98 618 -120 775 -513 95 -238 129 -487 100 -742 -50
-438 -247 -865 -576 -1249 -58 -69 -69 -77 -75 -60 -4 10 -26 81 -49 158 -255
867 -808 1797 -1421 2391 -517 501 -978 715 -1539 715 -366 0 -637 -89 -816
-267 -185 -184 -227 -450 -90 -570 50 -45 65 -43 59 6 -7 51 6 72 65 104 75
41 157 56 245 47 145 -17 256 -72 368 -184 206 -204 332 -548 332 -901 -1
-542 -243 -1087 -690 -1557 l-93 -96 -10 41 c-42 163 -88 321 -127 437 -276
814 -766 1622 -1328 2185 -402 404 -817 649 -1225 726 -149 27 -470 35 -605
14z"/>
</g>
</svg>
