<?xml version="1.0" standalone="no"?>
<!DOCTYPE svg PUBLIC "-//W3C//DTD SVG 20010904//EN"
 "http://www.w3.org/TR/2001/REC-SVG-20010904/DTD/svg10.dtd">
<svg version="1.0" xmlns="http://www.w3.org/2000/svg"
 width="1280.000000pt" height="674.000000pt" viewBox="0 0 1280.000000 674.000000"
 preserveAspectRatio="xMidYMid meet">
<metadata>
Created by potrace 1.15, written by Peter Selinger 2001-2017
</metadata>
<g transform="translate(0.000000,674.000000) scale(0.100000,-0.100000)"
fill="#000000" stroke="none">
<path d="M7465 6519 c-115 -32 -226 -58 -245 -59 -43 0 -74 -21 -98 -63 -15
-29 -17 -87 -22 -657 l-5 -625 -235 -22 c-129 -12 -247 -22 -262 -22 l-28 -1
0 343 c0 330 1 343 20 360 11 9 20 20 20 25 0 20 -29 45 -53 45 -53 0 -76 -48
-37 -76 20 -14 20 -23 18 -358 l-3 -344 -57 -7 c-178 -22 -412 -147 -506 -270
-91 -120 -111 -200 -112 -438 0 -158 -12 -362 -26 -447 l-6 -40 -267 -32
c-768 -93 -1593 -226 -2177 -351 -130 -28 -238 -49 -241 -47 -6 7 -120 -21
-157 -38 -17 -7 -85 -28 -151 -45 -451 -119 -837 -270 -991 -387 -36 -28 -49
-33 -52 -22 -3 8 -26 34 -51 59 -44 44 -58 49 -266 117 -211 68 -373 119 -590
185 -123 37 -223 70 -295 97 -65 24 -159 27 -199 6 -44 -22 -79 -71 -97 -133
-15 -51 -16 -108 -11 -547 4 -269 12 -688 18 -930 13 -499 11 -486 101 -620
55 -83 110 -133 184 -167 40 -19 66 -23 141 -23 l91 1 424 209 c232 115 440
221 461 234 45 29 68 69 60 101 -5 20 -3 21 18 15 13 -4 123 -58 244 -120 236
-121 372 -175 660 -260 1228 -362 3369 -715 5190 -855 1131 -86 1871 -91 2385
-15 517 76 993 236 1360 458 224 135 483 371 617 560 234 332 345 763 285
1113 -12 67 -41 183 -66 259 -219 665 -753 1168 -1453 1369 -125 36 -351 85
-418 92 -352 32 -605 43 -1060 46 -203 2 -514 1 -690 -2 l-320 -4 -5 279 c-5
275 -6 281 -32 342 -65 152 -159 240 -308 289 -48 15 -105 18 -422 22 l-368 4
0 534 c0 498 1 534 17 534 10 0 83 -9 163 -19 245 -33 229 -33 256 -4 25 27
48 91 59 167 9 55 -9 139 -37 178 -25 35 -90 68 -133 67 -16 -1 -124 -27 -240
-60z m-6397 -3764 c108 -37 296 -118 324 -138 13 -11 17 -45 25 -215 l8 -202
-132 0 c-73 0 -133 3 -133 6 0 3 8 18 18 32 37 54 34 56 -11 7 l-46 -50 -1 70
c-1 39 -5 88 -9 110 -8 36 -9 33 -10 -31 0 -39 -4 -86 -7 -103 l-7 -32 -39 38
-40 38 31 -51 c17 -28 31 -54 31 -58 0 -3 -19 -6 -42 -7 -24 0 -63 -4 -88 -8
l-45 -7 70 -8 c111 -11 111 -12 74 -71 l-31 -50 40 38 39 38 7 -32 c3 -17 7
-64 7 -103 1 -64 2 -67 10 -31 4 22 8 68 8 103 1 34 4 62 9 62 4 0 24 -19 45
-42 38 -43 40 -37 5 14 -10 14 -18 29 -18 32 0 3 60 6 134 6 l134 0 7 -142
c11 -226 31 -193 -190 -316 -290 -161 -344 -178 -402 -128 l-28 24 -5 604 -5
603 24 24 c22 21 31 23 81 18 31 -4 102 -22 158 -42z"/>
</g>
</svg>
